<svg id="Grupo_771" data-name="Grupo 771" xmlns="http://www.w3.org/2000/svg" xmlns:xlink="http://www.w3.org/1999/xlink" width="358.912" height="68.731" viewBox="0 0 358.912 68.731">
  <defs>
    <clipPath id="clip-path">
      <rect id="Rectángulo_323" data-name="Rectángulo 323" width="358.912" height="68.731" fill="none"/>
    </clipPath>
  </defs>
  <g id="Grupo_770" data-name="Grupo 770" transform="translate(0 0)" clip-path="url(#clip-path)">
    <path id="Trazado_359" data-name="Trazado 359" d="M31.443,12.518c-.071-.036-.156-.078-.192-.1a.3.3,0,0,0-.2.03l-9.768,4.766c-.07.035-.063.062.014.062H41.063c.078,0,.084-.028.015-.062Z" transform="translate(3.198 1.869)" fill="#fff"/>
    <path id="Trazado_360" data-name="Trazado 360" d="M34.37,0A34.366,34.366,0,1,0,68.734,34.366,34.406,34.406,0,0,0,34.37,0M53.734,54.326a.1.1,0,0,1-.1.1H15.11a.1.1,0,0,1-.1-.1V50.451a.1.1,0,0,1,.1-.1H53.63a.1.1,0,0,1,.1.1ZM27.79,44.19V24.667h4.427V44.2h4.317V24.672h4.417V44.2h4.415V24.672h4.408V44.2h1.957v3.973a.1.1,0,0,1-.1.106H17.117a.106.106,0,0,1-.1-.106V44.2h1.954V24.672h4.4V44.19ZM55.025,20.553,53.8,22.7a.269.269,0,0,1-.211.124H15.173a.267.267,0,0,1-.211-.124l-1.223-2.144a.137.137,0,0,1,.056-.189L34.257,9.481a.285.285,0,0,1,.249,0L54.971,20.364a.135.135,0,0,1,.054.189" transform="translate(0 0)" fill="#fff"/>
    <path id="Trazado_361" data-name="Trazado 361" d="M74.752,44.558a13.367,13.367,0,0,1,1.62-.276,16.031,16.031,0,0,1,2.088-.144V20.221a16.639,16.639,0,0,1-2.088-.142,12.442,12.442,0,0,1-1.62-.283V16.562H88.118a20.18,20.18,0,0,1,4.083.4,9.987,9.987,0,0,1,3.373,1.309,6.487,6.487,0,0,1,2.278,2.389,7.376,7.376,0,0,1,.82,3.625,6.724,6.724,0,0,1-1.564,4.681,8.056,8.056,0,0,1-4.128,2.39v.093a10.881,10.881,0,0,1,2.7.824,7.846,7.846,0,0,1,2.253,1.521,7.019,7.019,0,0,1,1.529,2.238,7.344,7.344,0,0,1,.564,2.978,8.43,8.43,0,0,1-.892,4.02,7.448,7.448,0,0,1-2.469,2.723A11.01,11.01,0,0,1,92.887,47.3,22.589,22.589,0,0,1,88,47.8H74.752Zm8.912-14.769h3.8a6.809,6.809,0,0,0,4.5-1.216,4.47,4.47,0,0,0,1.408-3.592q0-4.572-5.77-4.576h-3.94Zm0,14.115h4.144a8.649,8.649,0,0,0,5.136-1.222,4.518,4.518,0,0,0,1.648-3.89,5.076,5.076,0,0,0-1.533-3.937c-1.023-.942-2.692-1.407-5.013-1.407H83.664Z" transform="translate(11.255 2.493)" fill="#fff"/>
    <path id="Trazado_362" data-name="Trazado 362" d="M105.366,47.317a8.073,8.073,0,0,1-2.673-.423,5.881,5.881,0,0,1-3.517-3.212,6.425,6.425,0,0,1-.518-2.651,6.311,6.311,0,0,1,1.056-3.7,7.808,7.808,0,0,1,2.767-2.413,13.244,13.244,0,0,1,3.894-1.314,24.49,24.49,0,0,1,4.432-.4h.844V31.293a3.961,3.961,0,0,0-.94-2.955,4.428,4.428,0,0,0-3.143-.9,7.765,7.765,0,0,0-3.211.656,11.4,11.4,0,0,0-2.743,1.734l-2.2-3.107a12.858,12.858,0,0,1,3.655-2.3,12.573,12.573,0,0,1,5.019-.927q4.268,0,6.4,1.873t2.135,6.144v9.52c0,.441.006.838.023,1.2s.039.71.072,1.055c.655.06,1.263.11,1.828.14s1.047.048,1.451.048v3.285c-.687.058-1.726.123-3.115.184s-2.919.1-4.575.1a7.139,7.139,0,0,1-.236-1.246,14.06,14.06,0,0,1-.093-1.709h-.093a8.723,8.723,0,0,1-2.6,2.252,7.544,7.544,0,0,1-3.919.984m1.268-3.755a5.932,5.932,0,0,0,2.978-.7,6.471,6.471,0,0,0,2.04-1.78V36.343h-.844a12.016,12.016,0,0,0-5.183.957,3.46,3.46,0,0,0-1.992,3.4,2.444,2.444,0,0,0,.986,2.2,3.615,3.615,0,0,0,2.016.652" transform="translate(14.855 3.537)" fill="#fff"/>
    <path id="Trazado_363" data-name="Trazado 363" d="M119.18,43.515a13.412,13.412,0,0,1,1.549-.276A14.131,14.131,0,0,1,122.7,43.1V27.572c-.72-.06-1.391-.106-2.017-.138s-1.125-.051-1.5-.051V24.149c.72-.1,1.862-.177,3.423-.257s3.285-.119,5.161-.119l-.186,3.566h.094a10.939,10.939,0,0,1,3-2.771,8.886,8.886,0,0,1,7.341-.517,5.414,5.414,0,0,1,2.087,1.553A6.3,6.3,0,0,1,141.27,27.9a10.278,10.278,0,0,1,.376,2.813V43.1a12.578,12.578,0,0,1,1.947.163c.672.113,1.164.2,1.476.257v3.241H133.347V43.515q.466-.091,1.4-.232c.626-.092,1.268-.156,1.926-.188V31.56a4.774,4.774,0,0,0-.8-2.955,3.238,3.238,0,0,0-2.723-1.033,4.91,4.91,0,0,0-3.142,1.079,12.666,12.666,0,0,0-2.3,2.345V43.1c.629.031,1.261.1,1.905.188s1.113.171,1.427.232v3.241H119.18Z" transform="translate(17.945 3.537)" fill="#fff"/>
    <path id="Trazado_364" data-name="Trazado 364" d="M156.862,30.153c-.029-.389-.061-.823-.09-1.247s-.049-.817-.049-1.191a7.176,7.176,0,0,0-2.768-.469,5.45,5.45,0,0,0-4.667,2.368,8.034,8.034,0,0,0-1.17,2.577,12.176,12.176,0,0,0-.4,3.211,11.49,11.49,0,0,0,.423,3.166,7.673,7.673,0,0,0,1.245,2.558,6.052,6.052,0,0,0,2.016,1.71,5.873,5.873,0,0,0,2.8.633,8.994,8.994,0,0,0,3.442-.655,10.154,10.154,0,0,0,1.172-.564c.33-.189.584-.342.775-.471l1.638,3.38a8.472,8.472,0,0,1-1.031.629,11.966,11.966,0,0,1-1.617.705,13.746,13.746,0,0,1-2.2.587,15.12,15.12,0,0,1-2.794.235,12.109,12.109,0,0,1-4.739-.869,9.775,9.775,0,0,1-3.49-2.415,10.7,10.7,0,0,1-2.177-3.66,13.534,13.534,0,0,1-.756-4.593,14.532,14.532,0,0,1,.876-5.205,10.808,10.808,0,0,1,2.44-3.868,10.458,10.458,0,0,1,3.651-2.393,12.389,12.389,0,0,1,4.571-.82,13.561,13.561,0,0,1,4.178.564,8.875,8.875,0,0,1,2.532,1.169v4.928Z" transform="translate(21.443 3.537)" fill="#fff"/>
    <path id="Trazado_365" data-name="Trazado 365" d="M171.038,47.317a11.33,11.33,0,0,1-4.984-1.008,9.648,9.648,0,0,1-3.393-2.651,10.652,10.652,0,0,1-1.919-3.753,15.476,15.476,0,0,1-.607-4.316,15.075,15.075,0,0,1,.632-4.263,11.955,11.955,0,0,1,1.942-3.892,10.164,10.164,0,0,1,3.368-2.84,10.379,10.379,0,0,1,4.962-1.1,11.524,11.524,0,0,1,5.006,1,10.056,10.056,0,0,1,3.461,2.653,10.8,10.8,0,0,1,2.013,3.757,14.168,14.168,0,0,1,0,8.529,12.112,12.112,0,0,1-2.013,3.92,10.359,10.359,0,0,1-3.461,2.857,10.651,10.651,0,0,1-5.006,1.1m.092-3.755a5.019,5.019,0,0,0,2.615-.632,5.285,5.285,0,0,0,1.775-1.711,7.694,7.694,0,0,0,1.027-2.58,14.963,14.963,0,0,0,.33-3.187,13.811,13.811,0,0,0-.356-3.191,8.369,8.369,0,0,0-1.047-2.6,5.385,5.385,0,0,0-1.8-1.757,5.082,5.082,0,0,0-2.641-.655,5,5,0,0,0-2.572.632,5.145,5.145,0,0,0-1.75,1.712,7.651,7.651,0,0,0-.979,2.558,15.7,15.7,0,0,0-.3,3.165,14.867,14.867,0,0,0,.328,3.191,8.7,8.7,0,0,0,1,2.624,5.142,5.142,0,0,0,1.753,1.782,4.947,4.947,0,0,0,2.613.652" transform="translate(24.111 3.537)" fill="#fff"/>
    <path id="Trazado_366" data-name="Trazado 366" d="M189.6,44.559a13.44,13.44,0,0,1,1.618-.276,15.677,15.677,0,0,1,2.088-.144V20.222a16.9,16.9,0,0,1-2.088-.142A12.112,12.112,0,0,1,189.6,19.8V16.561h8.679l13.272,18.62c.749,1.032,1.434,2.018,2.063,2.956a17.211,17.211,0,0,1,1.171,1.924h.1c-.035-.313-.066-.87-.1-1.668s-.043-1.788-.043-2.979V20.222a16.323,16.323,0,0,1-2.068-.142,11.791,11.791,0,0,1-1.591-.283V16.561H222.9V19.8a11.944,11.944,0,0,1-1.59.283,16.1,16.1,0,0,1-2.02.142V47.8H214.7L200.675,28.144c-.344-.465-.681-.945-1.009-1.426s-.616-.941-.868-1.361-.465-.792-.656-1.1-.311-.532-.375-.655h-.1a10.489,10.489,0,0,1,.144,1.615c.029.8.047,1.574.047,2.322v16.6c.622.031,1.3.087,2.038.161a12.191,12.191,0,0,1,1.62.259V47.8H189.6Z" transform="translate(28.548 2.493)" fill="#fff"/>
    <path id="Trazado_367" data-name="Trazado 367" d="M225.834,47.317a7.993,7.993,0,0,1-2.672-.423,5.848,5.848,0,0,1-2.11-1.241,5.907,5.907,0,0,1-1.408-1.971,7.012,7.012,0,0,1,.538-6.355,7.807,7.807,0,0,1,2.765-2.414,13.255,13.255,0,0,1,3.894-1.315,24.783,24.783,0,0,1,4.432-.4h.842V31.293a3.978,3.978,0,0,0-.937-2.957,4.444,4.444,0,0,0-3.145-.9,7.772,7.772,0,0,0-3.211.656,11.228,11.228,0,0,0-2.741,1.734l-2.2-3.107a12.773,12.773,0,0,1,3.658-2.3,12.577,12.577,0,0,1,5.021-.927q4.259,0,6.4,1.874t2.131,6.143v9.524c0,.434.009.833.022,1.191s.045.715.075,1.057c.656.062,1.264.107,1.829.14s1.047.048,1.451.048v3.285c-.687.058-1.728.123-3.117.184s-2.917.093-4.572.093a7.794,7.794,0,0,1-.236-1.244,14.541,14.541,0,0,1-.093-1.709h-.1a8.632,8.632,0,0,1-2.6,2.249,7.532,7.532,0,0,1-3.915.986m1.266-3.755a5.97,5.97,0,0,0,2.978-.7,6.492,6.492,0,0,0,2.038-1.785V36.341h-.842a12.013,12.013,0,0,0-5.182.958,3.463,3.463,0,0,0-2,3.4,2.457,2.457,0,0,0,.988,2.207,3.592,3.592,0,0,0,2.016.652" transform="translate(32.993 3.537)" fill="#fff"/>
    <path id="Trazado_368" data-name="Trazado 368" d="M252.9,30.131c-.031-.393-.061-.8-.092-1.221s-.043-.82-.043-1.2A7.305,7.305,0,0,0,250,27.243a5.464,5.464,0,0,0-4.663,2.369,8.163,8.163,0,0,0-1.174,2.58,12.256,12.256,0,0,0-.4,3.211,11.409,11.409,0,0,0,.425,3.166,7.7,7.7,0,0,0,1.24,2.558,6.087,6.087,0,0,0,2.018,1.71,5.908,5.908,0,0,0,2.791.633,8.942,8.942,0,0,0,1.9-.186,9.263,9.263,0,0,0,1.549-.468,11.168,11.168,0,0,0,1.172-.565c.324-.184.585-.346.773-.467l1.641,3.378a8.784,8.784,0,0,1-1.035.628,11.823,11.823,0,0,1-1.617.705,13.381,13.381,0,0,1-2.2.584,14.95,14.95,0,0,1-2.8.238,12.155,12.155,0,0,1-4.739-.869,9.813,9.813,0,0,1-3.487-2.416,10.746,10.746,0,0,1-2.177-3.657,13.574,13.574,0,0,1-.756-4.6,14.559,14.559,0,0,1,.877-5.2,10.917,10.917,0,0,1,2.436-3.872,10.558,10.558,0,0,1,3.652-2.391A12.483,12.483,0,0,1,250,23.489a13.723,13.723,0,0,1,4.178.564,8.911,8.911,0,0,1,2.53,1.172v4.906Z" transform="translate(35.905 3.536)" fill="#fff"/>
    <path id="Trazado_369" data-name="Trazado 369" d="M257.043,44.6a12.485,12.485,0,0,1,1.523-.278,13.534,13.534,0,0,1,1.948-.144V28.652c-.708-.06-1.375-.108-1.99-.138s-1.113-.049-1.481-.049V25.229c.715-.092,1.865-.182,3.452-.258s3.344-.115,5.272-.115l-.189,3.7V44.175a11.946,11.946,0,0,1,1.924.161c.654.113,1.155.2,1.5.261v3.239H257.043Zm5.979-22.538a2.823,2.823,0,0,1-2.07-.843,2.861,2.861,0,0,1,0-4.055,2.9,2.9,0,1,1,2.07,4.9" transform="translate(38.702 2.457)" fill="#fff"/>
    <path id="Trazado_370" data-name="Trazado 370" d="M279.761,48.374a11.348,11.348,0,0,1-4.982-1.008,9.682,9.682,0,0,1-3.4-2.65,10.741,10.741,0,0,1-1.916-3.753,15.57,15.57,0,0,1-.611-4.316,15.093,15.093,0,0,1,.636-4.265,12.03,12.03,0,0,1,1.94-3.89,10.172,10.172,0,0,1,3.37-2.841,10.373,10.373,0,0,1,4.958-1.1,11.535,11.535,0,0,1,5.011,1,10.066,10.066,0,0,1,3.461,2.654,10.856,10.856,0,0,1,2.016,3.753,14.2,14.2,0,0,1,0,8.53,12.151,12.151,0,0,1-2.016,3.922,10.392,10.392,0,0,1-3.461,2.856,10.7,10.7,0,0,1-5.011,1.1m.1-3.754a5.025,5.025,0,0,0,2.615-.631,5.313,5.313,0,0,0,1.775-1.712,7.711,7.711,0,0,0,1.027-2.581,14.665,14.665,0,0,0,.328-3.186,13.98,13.98,0,0,0-.351-3.189,8.367,8.367,0,0,0-1.052-2.606,5.414,5.414,0,0,0-1.795-1.758,5.1,5.1,0,0,0-2.645-.656,4.973,4.973,0,0,0-2.565.634,5.084,5.084,0,0,0-1.75,1.712,7.624,7.624,0,0,0-.985,2.553,16.086,16.086,0,0,0-.3,3.166,15.073,15.073,0,0,0,.326,3.191,8.555,8.555,0,0,0,1.007,2.628,5.123,5.123,0,0,0,1.748,1.781,4.938,4.938,0,0,0,2.616.654m1.573-28.154h6.75l-5.96,5.305h-4.362Z" transform="translate(40.481 2.479)" fill="#fff"/>
    <path id="Trazado_371" data-name="Trazado 371" d="M289.447,43.515a12.985,12.985,0,0,1,1.546-.276,13.8,13.8,0,0,1,1.966-.144V27.572q-1.075-.09-2.016-.138c-.625-.031-1.122-.049-1.5-.049V24.147c.715-.094,1.858-.181,3.421-.254s3.28-.116,5.161-.116l-.186,3.561h.092a11.037,11.037,0,0,1,2.995-2.768,8.865,8.865,0,0,1,7.342-.517,5.409,5.409,0,0,1,2.088,1.553,6.4,6.4,0,0,1,1.177,2.294,10.343,10.343,0,0,1,.373,2.813V43.1a12.437,12.437,0,0,1,1.947.161c.672.113,1.162.2,1.474.259v3.241H303.609V43.515c.309-.059.779-.138,1.406-.232s1.266-.156,1.919-.188V31.555a4.762,4.762,0,0,0-.79-2.95,3.249,3.249,0,0,0-2.721-1.033,4.923,4.923,0,0,0-3.147,1.079A12.628,12.628,0,0,0,297.98,31V43.1c.627.031,1.261.1,1.9.188s1.121.174,1.434.232v3.241H289.447Z" transform="translate(43.582 3.537)" fill="#fff"/>
  </g>
</svg>
