<svg xmlns="http://www.w3.org/2000/svg" xmlns:xlink="http://www.w3.org/1999/xlink" width="125" height="126.475" viewBox="0 0 125 126.475">
  <defs>
    <clipPath id="clip-path">
      <rect id="Rectángulo_269" data-name="Rectángulo 269" width="125" height="126.475" fill="none"/>
    </clipPath>
  </defs>
  <g id="Grupo_782" data-name="Grupo 782" transform="translate(0 0)">
    <g id="Grupo_781" data-name="Grupo 781" transform="translate(0 0)" clip-path="url(#clip-path)">
      <path id="Trazado_10566" data-name="Trazado 10566" d="M16.76,126.475a16.164,16.164,0,0,1-11.87-4.889A16.166,16.166,0,0,1,0,109.711a16.468,16.468,0,0,1,1.6-7.128,17.047,17.047,0,0,1,4.5-5.825V67.046H18.285V30.473H65.218L93.561,96.914a30.684,30.684,0,0,1,1.75,4.715A18.436,18.436,0,0,1,96,106.665a19.807,19.807,0,0,1-19.81,19.81,19.048,19.048,0,0,1-10.877-3.353,20.49,20.49,0,0,1-7.408-8.84H32.914a16.455,16.455,0,0,1-6.019,8.762,16.3,16.3,0,0,1-10.136,3.43M86.855,96V0H96l-.687,101.628m-8.455-80.3H125v9.142H86.855M16.736,117.332a7.427,7.427,0,0,0,5.433-2.185,7.3,7.3,0,0,0,2.212-5.409A7.442,7.442,0,0,0,22.2,104.3a7.3,7.3,0,0,0-5.409-2.208,7.439,7.439,0,0,0-5.436,2.181,7.31,7.31,0,0,0-2.208,5.409,7.427,7.427,0,0,0,2.181,5.436,7.3,7.3,0,0,0,5.413,2.212m59.436,0a10.639,10.639,0,1,0-7.544-3.124,10.325,10.325,0,0,0,7.544,3.124M32.914,105.14H56.32a27.642,27.642,0,0,1,1.125-4.722A24.429,24.429,0,0,1,59.429,96H42.056L23.314,76.188H15.238V92.952H16.76A16.293,16.293,0,0,1,26.9,96.378a16.47,16.47,0,0,1,6.019,8.762M46.169,86.7H79.238L59.273,39.619H27.427V67.046ZM42.056,96l-2.895-3.124q-2.893-3.126-6.476-6.779t-6.476-6.783l-2.895-3.124h0L42.056,96h0Z" transform="translate(0 0)" fill="#fff"/>
    </g>
  </g>
</svg>
